<mxfile host="app.diagrams.net" modified="2023-07-21T12:09:57.701Z" agent="Mozilla/5.0 (Windows NT 10.0; Win64; x64) AppleWebKit/537.36 (KHTML, like Gecko) Chrome/114.0.0.0 Safari/537.36 Edg/114.0.1823.51" version="21.6.2" etag="p9RTx0_jetHzYexDfXIC" type="github">
  <diagram name="Page-1" id="wk1V9gba_pjB6H50p-sj">
    <mxGraphModel>
      <root>
        <mxCell id="0" />
        <mxCell id="1" parent="0" />
      </root>
    </mxGraphModel>
  </diagram>
</mxfile>
